<svg version="1" xmlns="http://www.w3.org/2000/svg" width="281.333" height="281.333" viewBox="0 0 211.000000 211.000000"><path d="M99.9 7c-1.7 2.7-3.6 5-4.3 5-.6 0-3-1.8-5.1-4-5.2-5.3-7.1-4.9-9.9 1.7-1.2 2.9-2.5 5.5-2.8 5.9-.4.4-3-.8-5.7-2.6-6.7-4.2-8.2-3.8-9.9 3-.7 3-1.7 5.9-2.2 6.4-.5.5-3.2-.1-6.5-1.4-6.9-2.8-7.9-2.1-8.2 5.7-.1 3-.5 5.9-1 6.3-.4.5-3.1.4-6-.2-7.5-1.5-8.5-.9-7.7 4.9 1.3 9.2 1.6 8.8-5.3 9.1-8 .4-8.9 1.5-6.3 7.7 3.1 7.3 2.9 7.9-4.1 9.3-3.4.8-6.2 1.9-6.6 2.7-.3.8.9 3.7 2.7 6.5 1.8 2.8 3 5.6 2.7 6.3-.2.6-2.7 2-5.5 3C1.4 84.6 1 86.4 6 91.5c2.2 2.2 4 4.7 4 5.5 0 .8-2 2.8-4.5 4.3-2.5 1.6-4.7 3.3-5 3.8-1 1.5 1.2 4.3 5.4 6.9 2.3 1.4 4.1 3.1 4.1 3.9 0 .7-1.8 3.3-4 5.7-2.2 2.4-4 4.8-4 5.5 0 .6 2.7 2.2 6 3.6 3.3 1.5 6 3.1 6 3.7 0 .6-1.4 3.1-3 5.6-1.6 2.5-3 5-3 5.7 0 1.7 2.7 2.9 8.3 3.7 5.5.8 5.8 1.9 2.8 8.8-2.7 6.3-1.6 7.8 5.9 7.8 3.2 0 6.2.5 6.5 1 .4.6.1 3.5-.5 6.6-1.5 7.4-.9 8 7 6.7 5.8-.9 6.2-.9 6.9 1.1.5 1.1.6 3.9.5 6.2-.5 6.3 1.3 7.3 8.3 4.4 5.4-2.2 5.6-2.3 6.9-.5.8 1.1 1.4 2.6 1.5 3.4 0 .9.2 2.4.4 3.4 1.1 5.7 2.8 6 9.7 1.6 2.7-1.7 5.2-2.8 5.6-2.5.3.4 1.6 3.1 2.7 5.9 2.7 6.7 4.8 7.1 10 1.7 2.1-2.2 4.4-4 5-4 .7 0 2.6 2.3 4.4 5 4.3 6.7 5.5 6.6 10.5-.7 1.6-2.4 3.4-4.3 3.9-4.3.6 0 3 1.9 5.3 4.1 2.8 2.7 4.8 4 5.8 3.6.9-.4 2.7-3.1 4-6.2 1.4-3 2.9-5.5 3.4-5.5s2.8 1.4 5 3c5.7 4.1 7.8 3.9 9.1-.8.6-2 1.1-4.4 1.1-5.2.1-4 1.6-4.4 8-2 3.9 1.5 6.5 1.9 7.1 1.3.5-.5 1-3.4 1.1-6.4.2-7.4.6-7.7 7.8-6.5 5.1.8 6.3.7 7.1-.4.5-.8.7-2.1.4-2.7-.2-.7-.7-3.5-1.1-6.2l-.6-5 6.8-.3c8.1-.4 8.8-1.5 5.5-8.8-1-2.3-1.7-4.9-1.4-5.6.3-.8 2.7-1.7 5.5-2 2.7-.4 5.6-1.3 6.4-2.1 1.5-1.6 1.1-2.7-4.1-10.6l-1.7-2.6 5.8-2.8c3.5-1.7 6-3.6 6.2-4.7.3-1.1-1.2-3.5-3.8-6.1-2.3-2.4-3.9-4.8-3.6-5.4.4-.6 2.7-2.2 5.2-3.7 5.8-3.4 5.9-6 .3-9.4-6.2-3.8-6.4-5.1-1.9-9.5 5.4-5.3 5.2-7.5-.8-9.9-7.2-2.9-7.6-3.8-3.6-9.7 3-4.5 3.6-7.7 1.3-8-.5-.1-1.2-.2-1.6-.3-.5-.1-2.7-.6-5-1s-4.4-1.3-4.6-2c-.3-.7.3-3.2 1.4-5.6 3.5-7.8 2.6-9-6.7-9-6 0-6.1-.2-4.5-8.7 1.2-6.1.4-6.8-6.8-5.6-3.3.5-6.4.7-6.9.4-.5-.3-.9-3.2-1-6.5-.1-7.8-.9-8.5-7.5-5.8-2.9 1.2-5.8 2.2-6.4 2.2-1.1 0-1.9-2.2-3.7-10.3-.8-3.6-3.5-3.5-8.7.2-2.2 1.7-4.6 2.8-5.4 2.5-.7-.3-2.2-2.8-3.3-5.5-2.8-6.7-4.4-7.1-9.6-2-2.3 2.2-4.7 4.1-5.4 4.1-.6 0-2.7-2.2-4.4-5-1.9-2.8-4.1-5-5.1-5s-3 2-4.8 5zm9.4 16.2c2.1 2.5 1.6 6.4-1.1 8.5-2.7 2-6.9 1.6-8.6-.9-2.2-3.1-2-5.8.6-8.5 2.6-2.8 6.3-2.4 9.1.9zM96.3 37c3.4 3.3 7 6 8 6 .9 0 4.5-2.7 8-6 3.4-3.3 6.7-6 7.3-6 .7 0 4.3.9 8 2.1 16.1 4.9 31 16 41.1 30.7l3.6 5.2-2.3 5.1-2.4 5.1-1.4-4c-1.6-4.8-8-12.4-13.3-15.8-2.1-1.3-6.6-3.3-10.1-4.5-6.1-2.1-7.7-2.2-49-2.3-23.6 0-42.8-.4-42.8-.8 0-1.6 11.8-10 19.5-13.9 7.4-3.6 15.2-6.6 18.3-6.8.7-.1 4 2.6 7.5 5.9zM32.2 77.4c4.8 3.6 1.2 12.1-4.8 11-3.4-.6-5.3-3-5.4-6.6 0-4.7 6.3-7.4 10.2-4.4zm27.4 0c1.8 1.4 1.9 2.9 2 26.8.1 29.7-.2 32.5-2.7 33.9-1.1.5-6.7 1.1-12.7 1.2l-10.7.1-1.8-3.7c-3.3-7.1-5.5-18.7-5.3-29l.1-9.8 6.5-3.5c10.3-5.6 10.2-5.3 5.2-16.6-.7-1.5 17.3-.9 19.4.6zm60.8-.4c7.1 1.6 10 7.2 7.5 14.8-2.3 7-5.2 8.2-19.9 8.2H97.1V76h9.7c5.3 0 11.5.5 13.6 1zm63.9.4c3 2.3 3.1 6.3.3 9.1-4.2 4.2-9 2.7-10.2-3.1-1.1-5.5 5.4-9.4 9.9-6zm-3.1 21c.4.6.5 5.6.3 11.1-.5 11.3-3 21.6-7.6 30.8-3 6-10.1 16.4-12.3 18-1 .7-5.4.5-14.8-.8-4.9-.7-6.3.9-7.8 9.2-.6 3.7-1.4 7.6-1.6 8.5-.4 1.4-4 3.1-11.9 5.5-.5.2-4.4.9-8.6 1.6-12.8 2.3-29.5.5-40.7-4.3-5.2-2.3-5.4-2.6-6.8-12l-.5-3.5H95c14.4 0 26.4-.3 26.7-.8.5-.8.6-7.3.4-18.4l-.1-4.2-10.7.1c-13.8 0-14-.2-13.9-13.4l.1-9.3 3-.2c1.7 0 10.9-.2 20.6-.3 13.4-.2 18.9-.7 23.2-2 10.4-3.2 20.1-12.5 22.2-21.3l.7-2.7 6.7 3.6c3.6 2.1 6.9 4.2 7.3 4.8zM61.4 166.5c3.5 2.6 1.8 10-2.4 10.5-4.9.7-8-1.6-8-5.7 0-5.4 6-8.1 10.4-4.8zm93.9-.2c4.6 3.3 1.4 12.1-4.1 11.1-5.7-1.1-7.8-5.7-4.6-10.2 1.7-2.5 6-2.9 8.7-.9z"/></svg>